<svg width="400" height="500" viewBox="0 0 400 500" xmlns="http://www.w3.org/2000/svg">
    <!-- Background Circle -->
    <circle cx="200" cy="180" r="120" fill="#FAF9F6"/>
    
    <!-- Professional Avatar Silhouette -->
    <path d="M200 60
             C 260 60 300 120 300 180
             C 300 240 260 300 200 300
             C 140 300 100 240 100 180
             C 100 120 140 60 200 60" 
          fill="#567d60"/>
    
    <!-- Lab Coat -->
    <path d="M120 280
             L 100 500
             L 300 500
             L 280 280
             C 260 300 240 310 200 310
             C 160 310 140 300 120 280" 
          fill="#ffffff"/>
    
    <!-- Stethoscope -->
    <path d="M180 260
             Q 200 280 220 260
             Q 240 240 220 220
             L 200 240
             L 180 220
             Q 160 240 180 260" 
          fill="#77ADCF"/>
    
    <!-- Name Tag -->
    <rect x="170" y="320" width="60" height="20" fill="#8BC397"/>
    
    <!-- Professional Details -->
    <text x="200" y="430" 
          font-family="Helvetica Neue" 
          font-size="24" 
          text-anchor="middle" 
          fill="#567d60">
        Dr. Lauren Forsythe
    </text>
    <text x="200" y="460" 
          font-family="Helvetica Neue" 
          font-size="18" 
          text-anchor="middle" 
          fill="#77ADCF">
        PharmD, DICVP, FSVHP
    </text>
</svg>
